<?xml version="1.0" standalone="no"?>
<!DOCTYPE svg PUBLIC "-//W3C//DTD SVG 1.1//EN" "http://www.w3.org/Graphics/SVG/1.1/DTD/svg11.dtd">
<svg width="800" height="600" version="1.1" xmlns="http://www.w3.org/2000/svg">
<rect width="800" height="600" x="0" y="0" style="fill:rgb(238,238,238);stroke:none"/>
<rect width="800" height="600" x="0" y="0" style="fill:rgb(255,255,255);stroke:none"/>
<text x="2" y="566" fill="rgb(0,0,0)" font-family="Arial" font-size="12">0</text>
<text x="2" y="490" fill="rgb(0,0,0)" font-family="Arial" font-size="12">500</text>
<text x="2" y="414" fill="rgb(0,0,0)" font-family="Arial" font-size="12">1000</text>
<text x="2" y="338" fill="rgb(0,0,0)" font-family="Arial" font-size="12">1500</text>
<text x="2" y="262" fill="rgb(0,0,0)" font-family="Arial" font-size="12">2000</text>
<text x="2" y="186" fill="rgb(0,0,0)" font-family="Arial" font-size="12">2500</text>
<text x="2" y="110" fill="rgb(0,0,0)" font-family="Arial" font-size="12">3000</text>
<text x="286" y="30" fill="rgb(0,0,0)" font-family="Arial" font-size="12">Quality score distribution over all sequences</text>
<line x1="37" y1="560" x2="790" y2="560" stroke="rgb(0,0,0)" stroke-width="1"/>
<line x1="37" y1="560" x2="37" y2="40" stroke="rgb(0,0,0)" stroke-width="1"/>
<text x="293" y="595" fill="rgb(0,0,0)" font-family="Arial" font-size="12">Mean Sequence Quality (Phred Score)</text>
<text x="43" y="575" fill="rgb(0,0,0)" font-family="Arial" font-size="12">15</text>
<rect width="28" height="520" x="65" y="40" style="fill:rgb(230,230,230);stroke:none"/>
<text x="71" y="575" fill="rgb(0,0,0)" font-family="Arial" font-size="12">16</text>
<text x="99" y="575" fill="rgb(0,0,0)" font-family="Arial" font-size="12">17</text>
<rect width="28" height="520" x="121" y="40" style="fill:rgb(230,230,230);stroke:none"/>
<text x="127" y="575" fill="rgb(0,0,0)" font-family="Arial" font-size="12">18</text>
<text x="155" y="575" fill="rgb(0,0,0)" font-family="Arial" font-size="12">19</text>
<rect width="28" height="520" x="177" y="40" style="fill:rgb(230,230,230);stroke:none"/>
<text x="183" y="575" fill="rgb(0,0,0)" font-family="Arial" font-size="12">20</text>
<text x="211" y="575" fill="rgb(0,0,0)" font-family="Arial" font-size="12">21</text>
<rect width="28" height="520" x="233" y="40" style="fill:rgb(230,230,230);stroke:none"/>
<text x="239" y="575" fill="rgb(0,0,0)" font-family="Arial" font-size="12">22</text>
<text x="267" y="575" fill="rgb(0,0,0)" font-family="Arial" font-size="12">23</text>
<rect width="28" height="520" x="289" y="40" style="fill:rgb(230,230,230);stroke:none"/>
<text x="295" y="575" fill="rgb(0,0,0)" font-family="Arial" font-size="12">24</text>
<text x="323" y="575" fill="rgb(0,0,0)" font-family="Arial" font-size="12">25</text>
<rect width="28" height="520" x="345" y="40" style="fill:rgb(230,230,230);stroke:none"/>
<text x="351" y="575" fill="rgb(0,0,0)" font-family="Arial" font-size="12">26</text>
<text x="379" y="575" fill="rgb(0,0,0)" font-family="Arial" font-size="12">27</text>
<rect width="28" height="520" x="401" y="40" style="fill:rgb(230,230,230);stroke:none"/>
<text x="407" y="575" fill="rgb(0,0,0)" font-family="Arial" font-size="12">28</text>
<text x="435" y="575" fill="rgb(0,0,0)" font-family="Arial" font-size="12">29</text>
<rect width="28" height="520" x="457" y="40" style="fill:rgb(230,230,230);stroke:none"/>
<text x="463" y="575" fill="rgb(0,0,0)" font-family="Arial" font-size="12">30</text>
<text x="491" y="575" fill="rgb(0,0,0)" font-family="Arial" font-size="12">31</text>
<rect width="28" height="520" x="513" y="40" style="fill:rgb(230,230,230);stroke:none"/>
<text x="519" y="575" fill="rgb(0,0,0)" font-family="Arial" font-size="12">32</text>
<text x="547" y="575" fill="rgb(0,0,0)" font-family="Arial" font-size="12">33</text>
<rect width="28" height="520" x="569" y="40" style="fill:rgb(230,230,230);stroke:none"/>
<text x="575" y="575" fill="rgb(0,0,0)" font-family="Arial" font-size="12">34</text>
<text x="603" y="575" fill="rgb(0,0,0)" font-family="Arial" font-size="12">35</text>
<rect width="28" height="520" x="625" y="40" style="fill:rgb(230,230,230);stroke:none"/>
<text x="631" y="575" fill="rgb(0,0,0)" font-family="Arial" font-size="12">36</text>
<text x="659" y="575" fill="rgb(0,0,0)" font-family="Arial" font-size="12">37</text>
<rect width="28" height="520" x="681" y="40" style="fill:rgb(230,230,230);stroke:none"/>
<text x="687" y="575" fill="rgb(0,0,0)" font-family="Arial" font-size="12">38</text>
<text x="715" y="575" fill="rgb(0,0,0)" font-family="Arial" font-size="12">39</text>
<rect width="28" height="520" x="737" y="40" style="fill:rgb(230,230,230);stroke:none"/>
<text x="743" y="575" fill="rgb(0,0,0)" font-family="Arial" font-size="12">40</text>
<line x1="37" y1="560" x2="790" y2="560" stroke="rgb(180,180,180)" stroke-width="1"/>
<line x1="37" y1="484" x2="790" y2="484" stroke="rgb(180,180,180)" stroke-width="1"/>
<line x1="37" y1="408" x2="790" y2="408" stroke="rgb(180,180,180)" stroke-width="1"/>
<line x1="37" y1="332" x2="790" y2="332" stroke="rgb(180,180,180)" stroke-width="1"/>
<line x1="37" y1="256" x2="790" y2="256" stroke="rgb(180,180,180)" stroke-width="1"/>
<line x1="37" y1="180" x2="790" y2="180" stroke="rgb(180,180,180)" stroke-width="1"/>
<line x1="37" y1="104" x2="790" y2="104" stroke="rgb(180,180,180)" stroke-width="1"/>
<line x1="51" y1="560" x2="79" y2="560" stroke="rgb(136,34,85)" stroke-width="1"/>
<line x1="79" y1="560" x2="107" y2="560" stroke="rgb(136,34,85)" stroke-width="1"/>
<line x1="107" y1="560" x2="135" y2="560" stroke="rgb(136,34,85)" stroke-width="1"/>
<line x1="135" y1="560" x2="163" y2="560" stroke="rgb(136,34,85)" stroke-width="1"/>
<line x1="163" y1="560" x2="191" y2="560" stroke="rgb(136,34,85)" stroke-width="1"/>
<line x1="191" y1="560" x2="219" y2="560" stroke="rgb(136,34,85)" stroke-width="1"/>
<line x1="219" y1="560" x2="247" y2="560" stroke="rgb(136,34,85)" stroke-width="1"/>
<line x1="247" y1="560" x2="275" y2="560" stroke="rgb(136,34,85)" stroke-width="1"/>
<line x1="275" y1="560" x2="303" y2="559" stroke="rgb(136,34,85)" stroke-width="1"/>
<line x1="303" y1="559" x2="331" y2="559" stroke="rgb(136,34,85)" stroke-width="1"/>
<line x1="331" y1="559" x2="359" y2="560" stroke="rgb(136,34,85)" stroke-width="1"/>
<line x1="359" y1="560" x2="387" y2="559" stroke="rgb(136,34,85)" stroke-width="1"/>
<line x1="387" y1="559" x2="415" y2="558" stroke="rgb(136,34,85)" stroke-width="1"/>
<line x1="415" y1="558" x2="443" y2="559" stroke="rgb(136,34,85)" stroke-width="1"/>
<line x1="443" y1="559" x2="471" y2="559" stroke="rgb(136,34,85)" stroke-width="1"/>
<line x1="471" y1="559" x2="499" y2="558" stroke="rgb(136,34,85)" stroke-width="1"/>
<line x1="499" y1="558" x2="527" y2="557" stroke="rgb(136,34,85)" stroke-width="1"/>
<line x1="527" y1="557" x2="555" y2="556" stroke="rgb(136,34,85)" stroke-width="1"/>
<line x1="555" y1="556" x2="583" y2="556" stroke="rgb(136,34,85)" stroke-width="1"/>
<line x1="583" y1="556" x2="611" y2="553" stroke="rgb(136,34,85)" stroke-width="1"/>
<line x1="611" y1="553" x2="639" y2="547" stroke="rgb(136,34,85)" stroke-width="1"/>
<line x1="639" y1="547" x2="667" y2="536" stroke="rgb(136,34,85)" stroke-width="1"/>
<line x1="667" y1="536" x2="695" y2="498" stroke="rgb(136,34,85)" stroke-width="1"/>
<line x1="695" y1="498" x2="723" y2="40" stroke="rgb(136,34,85)" stroke-width="1"/>
<line x1="723" y1="40" x2="751" y2="328" stroke="rgb(136,34,85)" stroke-width="1"/>
<rect width="160" height="23" x="630" y="40" style="fill:rgb(255,255,255);stroke:none"/>
<rect width="160" height="23" x="630" y="40" rx="0" ry="0" style="fill:none;stroke-width:1;stroke:rgb(192,192,192)"/>
<text x="633" y="55" fill="rgb(136,34,85)" font-family="Arial" font-size="12" font-weight="bold">Average Quality per read</text>
</svg>
