<?xml version="1.0" standalone="no"?>
<!DOCTYPE svg PUBLIC "-//W3C//DTD SVG 1.1//EN" "http://www.w3.org/Graphics/SVG/1.1/DTD/svg11.dtd">
<svg width="800" height="600" version="1.1" xmlns="http://www.w3.org/2000/svg">
<rect width="800" height="600" x="0" y="0" style="fill:rgb(238,238,238);stroke:none"/>
<rect width="800" height="600" x="0" y="0" style="fill:rgb(255,255,255);stroke:none"/>
<text x="2" y="566" fill="rgb(0,0,0)" font-family="Arial" font-size="12">0</text>
<text x="2" y="478" fill="rgb(0,0,0)" font-family="Arial" font-size="12">1000</text>
<text x="2" y="389" fill="rgb(0,0,0)" font-family="Arial" font-size="12">2000</text>
<text x="2" y="300" fill="rgb(0,0,0)" font-family="Arial" font-size="12">3000</text>
<text x="2" y="211" fill="rgb(0,0,0)" font-family="Arial" font-size="12">4000</text>
<text x="2" y="122" fill="rgb(0,0,0)" font-family="Arial" font-size="12">5000</text>
<text x="265" y="30" fill="rgb(0,0,0)" font-family="Arial" font-size="12">Distribution of sequence lengths over all sequences</text>
<line x1="37" y1="560" x2="790" y2="560" stroke="rgb(0,0,0)" stroke-width="1"/>
<line x1="37" y1="560" x2="37" y2="40" stroke="rgb(0,0,0)" stroke-width="1"/>
<text x="338" y="595" fill="rgb(0,0,0)" font-family="Arial" font-size="12">Sequence Length (bp)</text>
<text x="150" y="575" fill="rgb(0,0,0)" font-family="Arial" font-size="12">150</text>
<rect width="251" height="520" x="288" y="40" style="fill:rgb(230,230,230);stroke:none"/>
<text x="401" y="575" fill="rgb(0,0,0)" font-family="Arial" font-size="12">151</text>
<text x="652" y="575" fill="rgb(0,0,0)" font-family="Arial" font-size="12">152</text>
<line x1="37" y1="560" x2="790" y2="560" stroke="rgb(180,180,180)" stroke-width="1"/>
<line x1="37" y1="472" x2="790" y2="472" stroke="rgb(180,180,180)" stroke-width="1"/>
<line x1="37" y1="383" x2="790" y2="383" stroke="rgb(180,180,180)" stroke-width="1"/>
<line x1="37" y1="294" x2="790" y2="294" stroke="rgb(180,180,180)" stroke-width="1"/>
<line x1="37" y1="205" x2="790" y2="205" stroke="rgb(180,180,180)" stroke-width="1"/>
<line x1="37" y1="116" x2="790" y2="116" stroke="rgb(180,180,180)" stroke-width="1"/>
<line x1="162" y1="560" x2="413" y2="40" stroke="rgb(136,34,85)" stroke-width="1"/>
<line x1="413" y1="40" x2="664" y2="560" stroke="rgb(136,34,85)" stroke-width="1"/>
<rect width="111" height="23" x="679" y="40" style="fill:rgb(255,255,255);stroke:none"/>
<rect width="111" height="23" x="679" y="40" rx="0" ry="0" style="fill:none;stroke-width:1;stroke:rgb(192,192,192)"/>
<text x="682" y="55" fill="rgb(136,34,85)" font-family="Arial" font-size="12" font-weight="bold">Sequence Length</text>
</svg>
